# xmcd
#
# Track frame offsets:
#	150
#	17585
#	31790
#	53012
#	69284
#	88641
#	103888
#	120975
#	138405
#	152551
#	174093
#
# Disc length: 2591 seconds
#
# Revision: 1
# Processed by: cddbd v1.5.2PL0 Copyright (c) Steve Scherf et al.
# Submitted via: EasyCDDAExtractor 9.1.3.1
#
DISCID=790a1d0b
DTITLE=Lady Antebellum
DYEAR=2008
DGENRE=Country
TTITLE0=Love Don't Live Here
TTITLE1=Lookin' for a Good Time
TTITLE2=All We'd Ever Need
TTITLE3=Long Gone
TTITLE4=I Run to You
TTITLE5=Love's Lookin' Good on You
TTITLE6=Home Is Where the Heart Is
TTITLE7=Things People Say
TTITLE8=Slow Down Sister
TTITLE9=Can't Take My Eyes off You
TTITLE10=One Day You Will
EXTD=
EXTT0=
EXTT1=
EXTT2=
EXTT3=
EXTT4=
EXTT5=
EXTT6=
EXTT7=
EXTT8=
EXTT9=
EXTT10=
PLAYORDER=
